<svg width="42" height="49" viewBox="0 0 42 49" fill="none" xmlns="http://www.w3.org/2000/svg">
<path fill-rule="evenodd" clip-rule="evenodd" d="M0.733154 14.5557V7.72281C0.733154 6.95944 0.733154 6.41532 0.125977 5.87087H4.29716C3.70503 6.415 3.6903 6.95944 3.6903 7.72281V14.6332C4.26643 14.8201 4.81056 14.9132 5.38669 14.9132C6.16447 14.9132 6.81869 14.6796 7.51901 14.1979L6.95889 16.423H0.126296C0.718431 15.8629 0.733154 15.3021 0.733154 14.5557ZM11.7033 16.423H7.53214C8.12331 15.8629 8.13899 15.3021 8.13899 14.5554V7.72345C8.13899 6.9604 8.13899 6.41564 7.53214 5.87119H11.7027C11.1118 6.41532 11.0965 6.9604 11.0965 7.72345V14.5554C11.0965 15.3021 11.1118 15.8629 11.7027 16.423M17.8647 15.1315C19.499 15.1315 20.6036 13.8858 20.6036 11.6293C20.6036 8.95221 19.3905 7.30256 17.6781 7.30256C16.0749 7.30256 14.9537 8.54828 14.9537 10.7888C14.9537 13.4812 16.1677 15.1315 17.8647 15.1315ZM11.8102 11.1306C11.8102 9.6839 12.4792 8.20548 13.6939 7.11595C14.7834 6.15126 16.2151 5.62122 17.7706 5.62122C21.3049 5.62122 23.7473 7.90973 23.7473 11.1473C23.7473 12.594 23.0784 14.1038 21.8647 15.1776C20.7748 16.1583 19.3431 16.6724 17.7709 16.6724C14.2693 16.6724 11.8102 14.3531 11.8102 11.1306Z" fill="#8B0042"/>
<path fill-rule="evenodd" clip-rule="evenodd" d="M24.4416 13.777V8.11168C24.4416 7.3656 24.4259 6.75778 23.6011 5.87118H26.8533L31.6471 12.3296V8.15906C31.6471 7.44305 31.5856 6.75778 30.9003 5.87118H33.9196C33.3444 6.82019 33.297 7.52019 33.297 8.20579V16.6877C31.0088 16.423 30.2471 15.3335 29.2814 14.0727L26.0912 9.91753V14.3998C26.0912 15.2087 26.1537 15.8005 26.7916 16.4227H23.7093C24.4416 15.6289 24.4416 14.8822 24.4416 13.777ZM37.2035 14.96C38.1993 14.96 38.8061 14.4466 38.8064 13.7927C38.8064 12.7966 37.7172 12.5168 36.2382 11.7541C34.7754 11.0067 34.013 9.9329 34.013 8.68782C34.013 6.89797 35.4607 5.62152 37.8882 5.62152C38.7908 5.62152 39.6319 5.7934 40.5345 6.11955V7.89404C39.6469 7.44273 38.9309 7.17835 38.3391 7.17835C37.4986 7.17835 36.9548 7.64502 36.9548 8.20547C36.9548 9.07702 38.0751 9.38813 39.8963 10.3852C41.1106 11.0535 41.6701 11.9718 41.6701 13.2479C41.6701 15.225 40.0358 16.5939 37.5153 16.5939C36.4718 16.5939 35.4607 16.3916 34.3859 16.0338L33.8418 13.7927C35.0709 14.54 36.1137 14.96 37.2035 14.96Z" fill="#8B0042"/>
<path fill-rule="evenodd" clip-rule="evenodd" d="M9.00071 4.0887C9.31342 4.0887 9.52723 3.84384 9.52723 3.51001C9.52723 3.13488 9.31342 2.90059 8.99559 2.90059C8.94854 2.90059 8.88036 2.91115 8.79234 2.92139V4.06789C8.89124 4.08325 8.95878 4.0887 9.00039 4.0887M8.93317 2.416C9.15722 2.416 9.29773 2.2598 9.29773 1.99414C9.29773 1.77009 9.1569 1.59789 8.94341 1.59789C8.91717 1.59789 8.86532 1.60269 8.79234 1.61357V2.40575C8.85475 2.416 8.9018 2.416 8.93317 2.416ZM7.79147 3.97379V1.68623C7.79147 1.43081 7.78635 1.24837 7.58887 1.06625H8.90181C9.78745 1.06625 10.2355 1.37864 10.2355 1.90004C10.2355 2.20763 10.0531 2.45249 9.70423 2.60324C10.1783 2.74407 10.4282 3.05678 10.4282 3.52569C10.4282 3.80191 10.329 4.05733 10.1472 4.25481C9.87611 4.54192 9.56372 4.59921 9.11017 4.59921H7.58887C7.78635 4.41197 7.79147 4.22473 7.79147 3.97379ZM12.9312 2.12409C12.9312 1.80114 12.7433 1.59757 12.4309 1.59757C12.405 1.59757 12.3791 1.59757 12.3528 1.60301V2.80649C12.7331 2.70726 12.9312 2.46785 12.9312 2.12409ZM11.1596 4.59921C11.3574 4.41165 11.3628 4.22441 11.3628 3.97379V1.68623C11.3628 1.43113 11.3628 1.24869 11.1596 1.06593H12.5353C13.4472 1.06593 13.9058 1.37384 13.9058 2.00918C13.9058 2.39007 13.6971 2.66085 13.2593 2.8689L13.9004 3.96355C13.9996 4.12999 14.1504 4.32843 14.3696 4.55248L13.7803 4.60977C13.7336 4.6149 13.6866 4.6149 13.6398 4.6149C13.2494 4.6149 13.0403 4.42189 12.8109 3.97891L12.3531 3.08303V3.97379C12.3531 4.22441 12.3579 4.41165 12.5561 4.59921H11.1596ZM16.162 4.59921H14.7655C14.9633 4.41197 14.9685 4.22473 14.9685 3.97347V1.68623C14.9685 1.43081 14.9685 1.24837 14.7655 1.06625H16.162C15.9639 1.24869 15.9588 1.43081 15.9588 1.68623V3.97347C15.9588 4.22441 15.9639 4.41197 16.162 4.59921ZM17.996 4.1095C18.3299 4.1095 18.5328 3.9373 18.5328 3.71869C18.5328 3.3855 18.1682 3.2914 17.6731 3.03598C17.1834 2.786 16.9279 2.42656 16.9279 2.00918C16.9279 1.41033 17.4129 0.983032 18.2255 0.983032C18.5273 0.983032 18.809 1.04033 19.1112 1.14947V1.74352C18.8145 1.59245 18.5744 1.50411 18.3766 1.50411C18.0952 1.50411 17.9131 1.65999 17.9131 1.84787C17.9131 2.13977 18.2883 2.2438 18.8974 2.57763C19.3038 2.80168 19.4917 3.10895 19.4917 3.53593C19.4917 4.19784 18.9444 4.65619 18.101 4.65619C17.7512 4.65619 17.4129 4.58865 17.0534 4.46894L16.8707 3.71869C17.2823 3.96867 17.6315 4.1095 17.996 4.1095ZM21.536 4.0887C21.8487 4.0887 22.0625 3.84384 22.0625 3.51001C22.0625 3.13488 21.8487 2.90059 21.5309 2.90059C21.4839 2.90059 21.4163 2.91115 21.3277 2.92139V4.06789C21.4269 4.08325 21.4944 4.0887 21.536 4.0887ZM21.4682 2.416C21.6922 2.416 21.8331 2.2598 21.8331 1.99414C21.8331 1.77009 21.6922 1.59789 21.4791 1.59789C21.4283 1.59994 21.3777 1.60517 21.3277 1.61357V2.40575C21.3901 2.416 21.4371 2.416 21.4682 2.416ZM20.3268 3.97379V1.68623C20.3268 1.43081 20.3217 1.24837 20.1239 1.06625H21.4371C22.3228 1.06625 22.7712 1.37864 22.7712 1.90004C22.7712 2.20763 22.5887 2.45249 22.2399 2.60324C22.7139 2.74407 22.9636 3.05678 22.9636 3.52569C22.9636 3.80191 22.865 4.05733 22.6825 4.25481C22.4114 4.54192 22.0994 4.59921 21.6455 4.59921H20.1239C20.3217 4.41197 20.3268 4.22409 20.3268 3.97379ZM25.2527 3.05678L24.8933 1.9679L24.5287 3.05678H25.2527ZM23.5906 4.07269L24.4196 1.70192C24.4503 1.60845 24.4973 1.51947 24.4973 1.40521C24.4973 1.28518 24.4349 1.19172 24.3251 1.06593H25.576L26.5769 3.96387C26.6652 4.21384 26.8006 4.43758 26.9673 4.59921H25.4355C25.5552 4.4635 25.623 4.37516 25.623 4.23433C25.623 4.16167 25.6128 4.09894 25.5971 4.05733L25.4195 3.55161H24.3568L24.1901 4.03652C24.1638 4.11974 24.143 4.1876 24.143 4.25001C24.143 4.37484 24.2003 4.49007 24.3101 4.59921H23.2731C23.4139 4.43277 23.5227 4.26602 23.5906 4.07269ZM27.499 3.71325V1.8165C27.499 1.56684 27.4939 1.36328 27.2173 1.06625H28.3065L29.9117 3.22866V1.83218C29.9117 1.59277 29.8909 1.36328 29.6614 1.06625H30.6722C30.4798 1.38408 30.4641 1.61902 30.4641 1.84787V4.68787C29.6979 4.59921 29.4425 4.23433 29.1198 3.81247L28.0508 2.42112V3.92194C28.0508 4.19272 28.0722 4.39084 28.2857 4.59921H27.2544C27.499 4.33355 27.499 4.08325 27.499 3.71325ZM31.6209 3.97379V1.68623C31.6209 1.43081 31.6209 1.24869 31.4176 1.06625H33.4859V1.80114C33.3093 1.6347 33.1787 1.59789 32.9809 1.59789H32.6211V2.47841H33.2987V3.15601C33.2155 3.04078 33.0849 2.97868 32.9184 2.97868H32.6211V4.04133C32.7496 4.07005 32.8806 4.08592 33.0122 4.0887C33.3665 4.0887 33.6373 4.02628 33.8982 3.82784L33.7106 4.59921H31.4176C31.6158 4.41165 31.6209 4.22441 31.6209 3.97379Z" fill="#0055A3"/>
<path fill-rule="evenodd" clip-rule="evenodd" d="M19.9687 13.2274C19.9687 13.2274 17.2032 12.8728 14.3536 14.0164C14.3536 14.0164 14.7326 14.4373 14.6849 14.718C14.6849 14.718 10.7358 15.588 9.30128 18.0477C9.30128 18.0477 9.86877 18.0944 10.0109 18.4686C10.0109 18.4686 6.983 20.4326 6.88858 22.4436C6.88858 22.4436 8.02387 22.7707 7.40869 23.2854C6.79351 23.8001 4.8065 24.6415 4.7124 25.8111C4.7124 25.8111 5.93636 25.7384 5.61117 26.8865C5.49914 27.2821 5.25781 28.2801 5.25781 29.6439C5.25781 41.0481 20.9353 48.983 20.9353 48.983C20.9353 48.983 36.63 41.0478 36.63 29.6443C36.6265 29.3693 36.5545 26.9371 35.794 25.6235C35.794 25.6235 36.0475 25.4513 36.3144 25.483C36.3144 25.483 36.2031 24.2859 34.8588 22.805C34.2567 22.1421 34.0727 20.9834 34.8946 20.9005C34.8946 20.9005 34.8015 20.1852 33.2078 19.9253C32.8225 19.8625 32.7757 19.8782 32.5485 19.5037C32.3411 19.1619 32.1932 18.3732 32.4556 17.8739C32.4556 17.8739 31.8379 17.6211 31.3796 17.881C31.3796 17.881 30.0695 15.0077 28.4611 14.5871C28.4611 14.5871 28.4375 14.8598 28.1891 15.0169C28.1891 15.0169 26.1544 12.6996 24.1715 12.6266C24.1715 12.6266 24.1895 12.9909 24.0051 13.2495C24.0051 13.2495 21.8155 12.586 19.9229 12.6561C19.9229 12.6561 20.0957 12.9909 19.9687 13.2274Z" fill="#EDC157"/>
<path fill-rule="evenodd" clip-rule="evenodd" d="M9.7779 23.462C9.7779 23.462 9.13296 23.784 8.12793 23.8532C8.12793 23.8532 8.76487 24.3525 9.90849 24.3365C9.90849 24.3365 9.80831 23.8916 9.7779 23.462Z" fill="#8B0042"/>
<path fill-rule="evenodd" clip-rule="evenodd" d="M36.1034 30.3584C35.5548 25.3729 33.1427 23.3299 33.1427 23.3299C34.2041 23.2473 35.0344 24.1083 35.0344 24.1083C33.3255 20.7901 31.5616 20.0709 30.8046 19.9169C31.889 20.591 32.6428 22.3111 31.6643 25.4267C30.6558 23.6871 29.6491 23.2223 29.6491 23.2223C30.1939 22.9138 31.0482 23.3881 31.0482 23.3881C30.3843 21.7759 28.7478 21.8233 28.7478 21.8233C29.4357 21.2068 30.5738 21.6335 30.5738 21.6335C29.2327 20.327 27.1129 20.8765 27.1129 20.8765C27.1129 20.8765 28.188 19.4961 29.7484 19.5812C29.991 19.5946 30.2298 19.648 30.4551 19.7393C30.7115 18.8316 31.617 18.5634 31.617 18.5634C30.0985 18.113 28.31 19.2746 28.31 19.2746C29.032 17.6143 28.8429 16.0028 28.8429 16.0028C27.658 19.1645 26.072 20.5536 26.072 20.5536C27.5197 17.7142 25.824 14.0766 25.824 14.0766C26.4074 17.8752 24.5273 19.9089 24.5273 19.9089C24.857 15.3351 22.862 13.9156 22.862 13.9156C24.3657 16.2332 23.1149 19.5639 23.1149 19.5639C22.2251 14.936 18.3954 14.0228 18.3954 14.0228C22.1562 16.3171 21.5958 20.9069 21.5958 20.9069C20.8897 17.1618 17.9198 15.6424 17.9198 15.6424C19.7154 17.3458 19.9842 20.2309 19.9842 20.2309C17.2447 14.6982 12.3793 16.087 12.3793 16.087C17.0066 16.5095 18.0808 20.2697 18.0808 20.2697C15.2337 16.5325 11.3356 17.6755 11.3356 17.6755C14.2898 17.8598 15.4258 20.0856 15.4258 20.0856C11.6425 17.1845 8.29679 20.8993 8.29679 20.8993C9.36711 20.544 9.77776 21.1371 9.77776 21.1371C8.6191 21.6741 8.12811 22.5719 8.12811 22.5719C9.20227 22.2493 9.75472 22.4644 9.75472 22.4644C9.76272 22.1802 9.93876 20.1624 11.5964 19.6785C13.4253 19.1453 14.7427 20.8836 14.7427 20.8836C12.3636 20.3772 11.3051 21.6357 11.3051 21.6357C12.579 21.2136 13.1081 21.8351 13.1081 21.8351C11.2895 21.9043 10.8158 23.3881 10.8158 23.3881C11.7904 22.9045 12.2183 23.2316 12.2183 23.2316C9.6971 25.7644 6.68746 24.8934 6.68746 24.8934C8.99134 26.3971 11.8294 25.5874 11.8294 25.5874C9.42888 27.3567 6.34402 26.8017 6.34402 26.8017C9.43208 28.5691 11.1746 27.8387 11.1746 27.8387C9.93139 29.6247 6.14014 29.5169 6.14014 29.5169C8.48851 31.0363 11.1746 30.1919 11.1746 30.1919C10.4643 31.2706 8.96414 31.42 8.96414 31.42C10.5069 32.122 11.543 31.7881 11.543 31.7881C10.3305 32.9813 7.64768 32.4689 7.64768 32.4689C9.72367 34.1595 12.4638 33.538 12.4638 33.538C9.68174 35.4834 6.72299 33.7246 6.72299 33.7246C8.82619 35.9705 12.6501 35.7641 12.6501 35.7641C11.1861 36.7764 9.39015 36.3802 9.39015 36.3802C10.8791 37.6166 12.0541 37.559 12.0541 37.559C10.3965 38.2753 8.3592 37.4118 8.3592 37.4118C10.0966 39.5467 13.3021 39.4385 13.3021 39.4385C12.2641 40.1299 10.3862 39.7586 10.3862 39.7586C13.0662 41.5609 15.4002 41.1454 15.4002 41.1454C13.2886 41.9834 11.6662 41.4655 11.6662 41.4655C14.3782 42.9193 16.0173 42.7816 16.0173 42.7816C15.0689 43.4912 14.1784 43.241 14.1784 43.241C14.1784 43.241 16.0704 44.7645 17.3776 45.735C19.6539 47.2896 20.9361 47.9547 20.9361 47.9547C28.0981 43.9025 27.5863 41.7132 27.5863 41.7132C28.1189 42.1841 28.2648 42.8524 28.2648 42.8524C30.7582 40.7822 31.0347 37.9425 31.0347 37.9425C31.6333 39.0714 30.9842 40.7457 30.9842 40.7457C33.8661 37.5978 32.8502 34.4767 32.8502 34.4767C33.7096 34.7834 33.8328 36.8043 33.8328 36.8043C36.7951 31.6857 34.0201 27.6867 34.0201 27.6867C35.0174 27.9972 36.1034 30.3584 36.1034 30.3584Z" fill="#8B0042"/>
<path fill-rule="evenodd" clip-rule="evenodd" d="M36.1033 30.3583C35.5547 25.3729 33.1426 23.3299 33.1426 23.3299C34.204 23.2473 35.0343 24.1083 35.0343 24.1083C33.3254 20.7901 31.5615 20.0709 30.8045 19.9169C31.8889 20.591 32.6427 22.3111 31.6642 25.4267C30.6557 23.6871 29.6491 23.2223 29.6491 23.2223C30.1938 22.9138 31.0481 23.3881 31.0481 23.3881C30.3843 21.7759 28.7477 21.8233 28.7477 21.8233C29.4356 21.2068 30.5737 21.6335 30.5737 21.6335C29.2326 20.3269 27.1128 20.8765 27.1128 20.8765C26.7748 20.9389 26.6621 20.9677 26.6621 20.9677C26.6621 20.9677 24.9584 20.7299 23.2396 21.3134C21.2107 22.0016 21.0586 24.2373 20.9328 24.2373C20.808 24.2373 20.6489 22.0019 18.62 21.3134C16.9012 20.7299 15.1975 20.9677 15.1975 20.9677C15.1975 20.9677 16.2441 21.2004 16.2249 21.5551C16.2127 21.7788 15.8504 21.8428 15.4583 21.9273C15.2612 21.9696 14.4683 22.1651 14.0714 22.5771C14.0714 22.5771 14.9737 22.4356 15.0915 22.6894C15.2365 22.9989 14.1927 23.5411 12.9544 23.9915C12.9544 23.9915 13.5084 23.9588 13.6457 24.2677C13.8256 24.6742 13.3887 25.2016 13.2136 25.4497C11.338 28.1047 12.0342 30.295 12.915 31.8304C13.512 32.8703 15.3354 35.7826 15.3354 35.7826C15.3354 35.7826 14.9846 36.4788 15.0627 37.4262C15.1651 38.6745 15.1651 39.2576 15.7326 39.9227C15.933 40.1574 16.4237 40.8125 16.3622 41.4575C16.2815 42.3028 16.5462 43.1305 17.4517 43.7595C17.4517 43.7595 17.574 43.4531 17.8048 43.3914C17.8048 43.3914 18.0531 43.8011 18.9868 44.2972C20.1599 44.9204 20.8413 45.5538 20.9165 47.9447L20.9357 47.9546C28.098 43.9025 27.5862 41.7132 27.5862 41.7132C28.1188 42.1841 28.2647 42.8524 28.2647 42.8524C30.7581 40.7821 31.0346 37.9425 31.0346 37.9425C31.6332 39.0713 30.9841 40.7457 30.9841 40.7457C33.866 37.5977 32.8501 34.4767 32.8501 34.4767C33.7095 34.7833 33.8327 36.8043 33.8327 36.8043C36.795 31.6857 34.02 27.6867 34.02 27.6867C35.0173 27.9972 36.1033 30.3583 36.1033 30.3583Z" fill="#69003D"/>
<path fill-rule="evenodd" clip-rule="evenodd" d="M29.744 29.7242C29.9607 28.555 29.7917 26.8916 28.6577 25.4497C28.2134 24.9025 27.7645 24.359 27.3112 23.8192C27.0311 23.4851 26.5808 23.0603 26.6669 22.8088C26.8115 22.3901 27.7881 22.577 27.7881 22.577C27.436 22.1731 26.7165 22.0195 26.4015 21.9273C26.0619 21.8274 25.6468 21.7788 25.635 21.555C25.6158 21.2004 26.6624 20.9677 26.6624 20.9677C26.6624 20.9677 24.9586 20.7299 23.2399 21.3134C21.2106 22.0015 21.0586 24.2372 20.9334 24.2372C20.8086 24.2372 20.6492 22.0019 18.6199 21.3134C16.9011 20.7299 15.1977 20.9677 15.1977 20.9677C15.1977 20.9677 16.244 21.2004 16.2248 21.555C16.2133 21.7788 15.8503 21.8428 15.4583 21.927C15.2611 21.9695 14.4686 22.1651 14.0723 22.5767C14.0723 22.5767 14.9737 22.4356 15.0921 22.6894C15.2368 22.9989 14.1927 23.5414 12.955 23.9917C12.955 23.9917 13.5087 23.9585 13.6457 24.2676C13.8262 24.6741 13.3887 25.2016 13.2136 25.4497C11.338 28.1047 12.0341 30.2949 12.9156 31.8303C13.5125 32.8702 15.3353 35.7826 15.3353 35.7826C15.7271 34.9766 16.4332 34.8192 16.4332 34.8192C15.962 35.1053 15.7101 35.562 15.5786 36.0194C16.6126 35.9122 17.6575 36.0038 18.6571 36.2893C18.7288 36.3097 18.8411 36.4045 18.7947 36.5543C18.7486 36.7057 18.5956 36.7073 18.5319 36.6865C17.7236 36.4216 16.8783 36.2871 16.0277 36.288C14.8845 36.2864 13.7543 36.5295 12.713 37.0011L12.7386 37.0747C13.6087 36.6981 14.5405 36.4841 15.4877 36.4432C15.4628 36.6108 15.4485 36.7798 15.4448 36.9492C16.411 36.819 17.3936 36.8847 18.3338 37.1426C18.4068 37.1631 18.5172 37.2549 18.4788 37.3986C18.44 37.5471 18.2819 37.566 18.2221 37.5471C17.5133 37.3174 16.7728 37.2007 16.0277 37.2011C14.9506 37.2011 13.9293 37.4415 13.0132 37.8711L13.0375 37.9421C13.8005 37.6021 14.6191 37.4043 15.4531 37.3583C15.4605 37.4633 15.4931 37.728 15.5139 37.8566L15.5107 37.8573C16.3438 37.7362 17.1927 37.7832 18.0073 37.9956C18.0835 38.0154 18.1974 38.1009 18.1597 38.2449C18.1161 38.4113 17.9596 38.4149 17.8969 38.3953C16.3809 37.9223 14.7413 38.0471 13.3144 38.7442L13.3391 38.8143C14.0447 38.4872 14.8076 38.3017 15.5847 38.2683C15.6208 38.4641 15.6541 38.6399 15.6708 38.7388C15.8254 39.6516 16.7488 39.956 17.3848 39.6542C17.4305 39.6324 19.6906 38.5544 19.7642 38.5211C20.0788 38.3777 20.3515 38.1563 20.5566 37.8779C20.7616 37.5995 20.8921 37.2733 20.9357 36.9304C20.9793 37.2733 21.1098 37.5994 21.3148 37.8778C21.5199 38.1562 21.7926 38.3776 22.1071 38.5211C22.1811 38.5544 24.4411 39.6324 24.4869 39.6542C25.1228 39.956 26.0463 39.6516 26.2008 38.7388C26.2213 38.6162 26.2527 38.4507 26.2847 38.2683C27.0846 38.3035 27.8435 38.4949 28.5323 38.8143L28.5569 38.7442C27.7127 38.3306 26.7853 38.1148 25.8452 38.113C25.1923 38.1114 24.5618 38.2113 23.9696 38.3969C23.9082 38.4161 23.7632 38.4072 23.7142 38.2596C23.6678 38.1197 23.7824 38.0167 23.855 37.9978C24.67 37.7836 25.5196 37.7354 26.3535 37.856C26.3583 37.8256 26.4031 37.5519 26.4198 37.3589C27.2747 37.4063 28.0886 37.6102 28.8334 37.9421L28.8581 37.8711C27.9148 37.4288 26.8855 37.2001 25.8436 37.2011C25.0787 37.2011 24.3415 37.3224 23.6502 37.5468C23.59 37.566 23.4377 37.5513 23.3948 37.4063C23.3866 37.3799 23.3838 37.3521 23.3864 37.3246C23.389 37.2971 23.397 37.2703 23.41 37.2459C23.4229 37.2215 23.4406 37.1999 23.4619 37.1823C23.4833 37.1648 23.5079 37.1516 23.5343 37.1435C24.478 36.8838 25.4645 36.8181 26.4342 36.9505C26.4321 36.7806 26.4178 36.6111 26.3916 36.4432C27.3362 36.4852 28.2653 36.6992 29.133 37.0747L29.1583 37.0011C28.1169 36.5297 26.9868 36.2865 25.8436 36.288C24.9666 36.288 24.1233 36.4282 23.3333 36.6881C23.2719 36.7085 23.1118 36.6929 23.0728 36.545C23.0589 36.4936 23.0651 36.4388 23.09 36.3918C23.115 36.3447 23.1569 36.3089 23.2072 36.2915C24.2111 36.0033 25.2611 35.9112 26.2997 36.0204L26.2972 36.0201C26.273 35.9377 26.2455 35.8564 26.2149 35.7762C25.8376 34.7916 24.8789 34.5727 24.8789 34.5727C24.8789 34.5727 25.368 33.9934 24.9859 33.0607L24.476 31.8518C24.476 31.8518 25.3357 32.5354 26.5436 32.5591C28.6225 32.6007 29.537 30.8458 29.7444 29.7242" fill="#EDC157"/>
<path fill-rule="evenodd" clip-rule="evenodd" d="M20.2581 42.4408C20.2581 42.4408 19.9012 42.6264 19.7342 43.062C19.7342 43.062 19.2729 42.758 19.2246 42.2337C19.2246 42.2337 18.7435 42.4177 18.555 42.8713C18.555 42.8713 18.0518 42.6699 18.0544 42.082C18.0544 42.082 17.7206 42.2788 17.55 42.6815C17.55 42.6815 16.9722 41.9719 17.0356 41.2658C17.1204 40.3334 17.8569 40.0297 17.9641 39.9768C18.5944 39.6729 19.226 39.3718 19.859 39.0736C20.1717 38.9424 20.5324 38.8483 20.9255 38.8483C21.3179 38.8483 21.6792 38.9424 21.9919 39.0736C22.0768 39.1094 23.7789 39.9228 23.8861 39.9768C23.994 40.0297 24.7343 40.3334 24.815 41.2658C24.8745 41.9562 24.347 42.6242 24.3006 42.6815C24.3006 42.6815 24.1668 42.323 23.7962 42.082C23.7962 42.082 23.7354 42.6309 23.2956 42.8713C23.2956 42.8713 23.1493 42.4577 22.6263 42.2337C22.6263 42.2337 22.6174 42.6946 22.1168 43.062C22.1168 43.062 21.9939 42.668 21.5058 42.4408C21.5058 42.4408 21.468 43.0233 20.8282 43.3991C20.8282 43.3991 20.6697 42.6245 20.2581 42.4408Z" fill="#EDC157"/>
<path fill-rule="evenodd" clip-rule="evenodd" d="M27.9964 27.2517C27.99 27.2325 27.9782 27.2156 27.9624 27.2029C27.9466 27.1902 27.9276 27.1823 27.9075 27.18L27.8706 27.0821H27.8694C27.895 27.0635 27.9475 27.0126 27.9356 26.9076C27.9203 26.7694 27.8134 26.7182 27.7231 26.7002C27.1322 26.5828 26.8186 26.3523 26.6246 26.2144C26.431 26.0767 26.2943 26.0095 26.0539 26.0095C25.3126 26.0095 23.9158 27.0971 23.4933 27.0971C23.4467 27.0966 23.401 27.0843 23.3604 27.0613C23.3199 27.0384 23.2858 27.0056 23.2613 26.9659C23.2603 26.9627 23.2587 26.9605 23.2574 26.9573C22.7559 27.6601 23.0529 28.3448 23.2574 28.8438L24.1543 31.0353L24.1562 31.0411C24.1562 31.0411 24.3575 30.9178 24.3684 30.6423C24.3812 30.3174 24.7109 29.5796 25.5325 29.5806C26.4188 29.5822 27.1434 29.233 27.4056 28.2455C27.4456 28.0964 27.5672 27.6393 27.9388 27.4047C27.9859 27.3756 28.0233 27.3205 27.9964 27.2517ZM13.0209 28.1278C13.2366 27.101 13.9212 27.1855 13.9632 27.1803L14.0003 27.0821H14.0009C13.9753 27.0632 13.9232 27.0123 13.935 26.9076C13.95 26.7694 14.057 26.7182 14.1472 26.7002C14.7384 26.5825 15.0524 26.3523 15.2457 26.214C15.4393 26.0767 15.576 26.0098 15.8164 26.0098C16.5583 26.0098 17.9545 27.0968 18.377 27.0968C18.4236 27.0963 18.4694 27.084 18.51 27.0611C18.5507 27.0381 18.5848 27.0053 18.6093 26.9656C18.6106 26.9627 18.6119 26.9601 18.6125 26.9569C19.1144 27.6598 18.8174 28.3448 18.6132 28.8434C18.5665 28.9587 17.7516 30.9482 17.716 31.0353L17.7144 31.0411L16.8838 33.0607C16.5052 33.9371 16.9911 34.5724 16.9911 34.5724C16.1045 34.5737 15.11 33.7489 13.7462 31.5209C12.9284 30.1855 12.873 28.8306 13.0209 28.1278Z" fill="#F8E3A2"/>
<path fill-rule="evenodd" clip-rule="evenodd" d="M23.258 26.9569C23.409 27.381 23.7934 27.3865 24.0284 27.317C24.2399 27.2546 25.1221 26.9697 25.5859 26.7867C26.049 26.6029 26.1706 26.6874 26.4091 26.7937C27.111 27.1058 27.8705 27.0818 27.8705 27.0818L27.9073 27.18C27.3232 27.4246 27.1488 27.6777 26.8556 28.1537C26.5762 28.6082 26.0215 28.974 25.3583 28.974C24.8446 28.974 24.6708 28.7596 24.4166 28.8463C24.2752 28.8947 24.1289 29.0179 24.079 29.3114C23.9618 29.9951 24.4659 30.76 24.1564 31.0398C24.1564 31.0398 23.305 28.9612 23.2576 28.8434C23.0534 28.3444 22.7564 27.6598 23.258 26.9569ZM23.0915 35.0074C22.9975 34.9007 22.8685 34.831 22.7277 34.8107C22.5869 34.7905 22.4435 34.821 22.3232 34.8969C22.2029 34.9728 22.1135 35.0891 22.0711 35.2249C22.0288 35.3607 22.0361 35.5071 22.0919 35.6379L20.9352 36.3674L19.7772 35.6367C19.8334 35.5057 19.8411 35.3589 19.7988 35.2228C19.7565 35.0867 19.667 34.9701 19.5464 34.8941C19.4258 34.8181 19.2821 34.7876 19.141 34.8082C19 34.8287 18.8709 34.8989 18.7769 35.0061L18.2559 34.6774C18.2559 34.6774 17.5687 34.2283 17.5367 33.8068C17.5245 33.6397 17.6381 33.4986 17.8382 33.778C17.922 33.8948 18.0181 34.0414 18.286 34.0414C18.4703 34.0414 18.7734 33.7575 19.3742 33.7575C20.2624 33.7575 20.3427 34.1589 20.9339 34.1589C21.5248 34.1589 21.6054 33.7575 22.4936 33.7575C23.0941 33.7575 23.3972 34.0414 23.5819 34.0414C23.8498 34.0414 23.9458 33.8948 24.0293 33.7783C24.2294 33.4986 24.343 33.6397 24.3308 33.8071C24.2995 34.2283 23.612 34.6777 23.612 34.6777L23.0915 35.0074ZM18.6131 26.9569C18.4617 27.381 18.0773 27.3865 17.8423 27.317C17.6311 27.2546 16.749 26.9697 16.2852 26.786C15.8217 26.6029 15.7004 26.6874 15.462 26.7937C14.7597 27.1058 14.0002 27.0818 14.0002 27.0818L13.9634 27.18C14.5478 27.4246 14.7219 27.6777 15.0151 28.1537C15.2939 28.6082 15.8499 28.974 16.5131 28.974C17.0265 28.974 17.2006 28.7596 17.4541 28.8463C17.5956 28.8947 17.7422 29.0179 17.7924 29.3114C17.9089 29.9951 17.0588 31.3989 17.4234 31.75L18.6134 28.8438C18.8173 28.3444 19.1149 27.6598 18.6131 26.9569Z" fill="#69003D"/>
<path fill-rule="evenodd" clip-rule="evenodd" d="M25.4252 27.3996C25.4252 27.4394 25.4094 27.4776 25.3813 27.5057C25.3531 27.5339 25.3149 27.5497 25.2751 27.5497C25.2353 27.5497 25.1971 27.5339 25.169 27.5057C25.1408 27.4776 25.125 27.4394 25.125 27.3996C25.125 27.3598 25.1408 27.3216 25.169 27.2934C25.1971 27.2653 25.2353 27.2495 25.2751 27.2495C25.3149 27.2495 25.3531 27.2653 25.3813 27.2934C25.4094 27.3216 25.4252 27.3598 25.4252 27.3996Z" fill="white"/>
<path fill-rule="evenodd" clip-rule="evenodd" d="M25.3619 28.4897C25.6864 28.4896 25.999 28.3672 26.2373 28.147C26.4757 27.9268 26.6223 27.6248 26.6479 27.3013C26.5513 27.2707 26.4564 27.2348 26.3637 27.1937C26.1786 27.1151 25.9761 27.0863 25.7764 27.1102C25.8221 27.1801 25.8511 27.2595 25.8612 27.3424C25.8713 27.4252 25.8622 27.5093 25.8346 27.5881C25.8069 27.6669 25.7616 27.7383 25.7019 27.7967C25.6423 27.8551 25.5701 27.8991 25.4907 27.9251C25.4114 27.9511 25.3272 27.9586 25.2445 27.9468C25.1619 27.9351 25.083 27.9045 25.0141 27.8574C24.9452 27.8103 24.888 27.748 24.847 27.6752C24.806 27.6025 24.7823 27.5213 24.7778 27.438C24.5281 27.5353 24.3722 27.5878 24.152 27.6444C24.2428 27.8922 24.4076 28.1062 24.624 28.2573C24.8404 28.4084 25.098 28.4898 25.3619 28.4897ZM16.4453 27.3996C16.4453 27.4394 16.4611 27.4776 16.4893 27.5057C16.5174 27.5339 16.5556 27.5497 16.5954 27.5497C16.6352 27.5497 16.6734 27.5339 16.7016 27.5057C16.7297 27.4776 16.7455 27.4394 16.7455 27.3996C16.7455 27.3597 16.7297 27.3216 16.7016 27.2934C16.6734 27.2653 16.6352 27.2494 16.5954 27.2494C16.5556 27.2494 16.5174 27.2653 16.4893 27.2934C16.4611 27.3216 16.4453 27.3597 16.4453 27.3996Z" fill="white"/>
<path fill-rule="evenodd" clip-rule="evenodd" d="M16.509 28.4898C16.1844 28.4898 15.8717 28.3675 15.6333 28.1472C15.3949 27.927 15.2483 27.6249 15.2227 27.3013C15.3174 27.2712 15.4128 27.2357 15.5069 27.1938C15.692 27.1152 15.8945 27.0864 16.0942 27.1102C16.0485 27.1801 16.0195 27.2595 16.0094 27.3424C15.9993 27.4253 16.0084 27.5094 16.036 27.5881C16.0637 27.6669 16.109 27.7383 16.1687 27.7967C16.2283 27.8552 16.3005 27.8991 16.3799 27.9251C16.4592 27.9512 16.5434 27.9586 16.6261 27.9469C16.7087 27.9351 16.7876 27.9045 16.8565 27.8574C16.9254 27.8103 16.9826 27.748 17.0236 27.6753C17.0646 27.6025 17.0883 27.5214 17.0928 27.438C17.3431 27.5353 17.4984 27.5878 17.7189 27.6444C17.6281 27.8923 17.4633 28.1062 17.2469 28.2573C17.0306 28.4085 16.773 28.4898 16.509 28.4898Z" fill="white"/>
</svg>
