<svg width="48" height="48" viewBox="0 0 48 48" fill="none" xmlns="http://www.w3.org/2000/svg">
<path fill-rule="evenodd" clip-rule="evenodd" d="M44.2427 3.34918V5.16021C44.8676 5.35849 45.486 5.5643 46.0844 5.77305L46.6318 5.96413V19.6632L43.7044 22.9953C43.0674 27.1003 41.8567 30.8854 40.1053 34.2476C38.6165 37.105 36.7351 39.6673 34.5128 41.8628C30.5374 45.7914 26.5132 47.5148 24.941 47.877C24.7303 47.9254 24.4627 47.9742 24.4604 47.9745L24.3164 48L24.1715 47.9745C24.0112 47.9452 23.8515 47.9128 23.6924 47.8773C22.115 47.5141 18.0794 45.7855 14.0951 41.8389C11.8676 39.6329 9.98326 37.0579 8.49517 34.1864C6.74467 30.8091 5.53863 27.0068 4.91008 22.8828L2 19.6701V5.96413L2.5474 5.77305C3.15827 5.56001 3.77215 5.35571 4.38886 5.16021V3.34918L4.86166 3.12996C4.93135 3.09724 6.61543 2.32375 9.87267 1.5496C12.8456 0.842857 17.764 0 24.3161 0C27.9323 0 34.4736 0.334394 38.7592 1.5496C42.5717 2.54657 44.2427 3.34918 44.2427 3.34918Z" fill="#DE0316"/>
<path fill-rule="evenodd" clip-rule="evenodd" d="M45.9991 6.72757C45.2079 6.45151 44.4116 6.19036 43.6106 5.94426V4.05405C43.6106 4.05405 37.0307 1 24.5001 1C11.9694 1 5.38919 4.05405 5.38919 4.05405V5.94393C4.5879 6.19 3.79137 6.45126 3 6.72757V19.5386L5.86493 22.7013C8.48413 40.5947 21.1489 46.5958 24.059 47.2652C24.2494 47.3094 24.5001 47.3542 24.5001 47.3542C24.5001 47.3542 24.7504 47.3094 24.9418 47.2649C27.8483 46.5948 40.46 40.6182 43.1172 22.8191L45.9991 19.5386V6.72757Z" fill="#061A33"/>
<path fill-rule="evenodd" clip-rule="evenodd" d="M40.7189 18.0173L40.692 18.0098C39.9761 37.655 27.0408 44.0055 24.2501 44.6662C24.0809 44.7061 23.8601 44.7466 23.8601 44.7466C23.8601 44.7466 23.6392 44.7061 23.4711 44.6665C20.6824 44.0078 7.73881 37.6563 7.02716 18C7.01832 18.002 7.00949 18.0046 7 18.0072C7.24932 38.5446 20.63 45.1242 23.4711 45.795C23.6392 45.8349 23.8601 45.8758 23.8601 45.8758C23.8601 45.8758 24.0809 45.8349 24.2501 45.7947C27.0934 45.1219 40.4659 38.5433 40.7189 18.0173Z" fill="#DE0316"/>
<path fill-rule="evenodd" clip-rule="evenodd" d="M20.1395 25.4891L23.0869 33.8768L23.0886 29.67L21.2798 24.3521L21.2788 24.3525L20.3856 21.7241L20.1395 21H18L18.6668 21.943V37.5443L18.0409 38.4765H20.7592L20.1399 37.5434L20.1395 25.4891Z" fill="#DE0316"/>
<path fill-rule="evenodd" clip-rule="evenodd" d="M17.5576 32.8456C17.1911 32.467 16.8705 32.042 16.6228 31.5764C16.3666 31.0954 16.1876 30.5693 16.117 30.0281C16.0275 29.3424 16.0998 28.6453 16.328 27.9926C16.5008 27.5077 16.7464 27.052 17.0563 26.6409C17.4226 26.1552 17.8561 25.724 18.3439 25.3603V23.3749C18.3242 23.3857 18.3039 23.3958 18.284 23.4066C18.1129 23.5087 17.9365 23.6026 17.7654 23.704C17.6096 23.797 17.4627 23.9004 17.3194 24.0103C17.0517 24.2143 16.7966 24.4342 16.5554 24.6689C16.1024 25.1116 15.7047 25.6076 15.371 26.1459C15.0504 26.6623 14.7861 27.2115 14.5824 27.7842C14.479 28.0747 14.3815 28.3672 14.2811 28.6591C14.196 28.9045 14.1103 29.1499 14.0209 29.3933C14.0147 29.4084 14 29.4329 14 29.4496C14 29.4692 14.018 29.4977 14.0242 29.5154L14.1201 29.7775C14.1482 29.8527 14.1737 29.9293 14.2002 30.0055L14.551 31.0234C14.7109 31.486 14.9094 31.9344 15.1442 32.3639C15.4444 32.9151 15.8091 33.4287 16.2305 33.8939C16.4504 34.1357 16.6853 34.3631 16.933 34.5758C17.1983 34.8042 17.4758 35.0227 17.7772 35.2017C17.9447 35.3008 18.1171 35.3928 18.284 35.4929V35.4919L18.3439 35.5247V33.5396C18.0647 33.3283 17.8018 33.0964 17.5576 32.8456ZM26.563 35.1235C25.8334 35.2838 25.0883 35.3676 24.3423 35.3787C23.6436 35.3903 22.9453 35.3369 22.2565 35.2194C21.6466 35.1151 21.0472 34.9563 20.4657 34.7449V36.428C21.1761 36.6317 21.9025 36.7747 22.637 36.8557C23.4818 36.9499 24.3358 36.965 25.1832 36.9025C26.0024 36.844 26.8143 36.7091 27.6084 36.4997C27.6869 36.4788 27.7645 36.4572 27.8427 36.4343V34.7538C27.4246 34.9048 26.9973 35.0283 26.563 35.1235ZM23.0895 23.5696V22L22.9253 22.0141C22.2447 22.0753 21.5687 22.1875 20.9061 22.3524L21.4185 23.8595C21.9671 23.7193 22.5258 23.6224 23.0895 23.5696Z" fill="#DE0316"/>
<path fill-rule="evenodd" clip-rule="evenodd" d="M29.4211 21.9433L30.0882 21H27.9484L27.702 21.7244L26.8097 24.3528L26.8084 24.3525L25 29.6707L25.0013 33.8775L27.9487 25.4895V37.544L27.329 38.4765H30.0473L29.4224 37.5447L29.4211 21.9433Z" fill="#DE0316"/>
<path fill-rule="evenodd" clip-rule="evenodd" d="M31.7287 26.4323C31.961 26.7036 32.1723 26.9948 32.3457 27.3082L32.9036 26.7945L33.6624 26.097C33.7363 26.0282 33.8109 25.9599 33.8849 25.8918C33.5007 25.5721 33.1258 25.2407 32.7436 24.9171C32.5247 24.7312 32.3098 24.5418 32.0814 24.3664C31.8544 24.1918 31.6197 24.0275 31.3779 23.874C31.2375 23.7847 31.0945 23.6989 30.9512 23.6145C30.8329 23.5425 30.7109 23.4767 30.5858 23.4172L30.5357 23.3917V25.3451C30.9751 25.6588 31.3756 26.0238 31.7287 26.4323ZM32.5522 31.9711L32.3454 31.7813C31.9721 32.458 31.4299 33.041 30.8289 33.5214C30.733 33.5982 30.6352 33.6722 30.5357 33.7439V35.6966C30.5521 35.6881 30.5697 35.6802 30.5861 35.671V35.6714C30.8279 35.5608 31.0566 35.4152 31.2817 35.2755C31.5251 35.1245 31.7617 34.963 31.9911 34.7915C32.2221 34.6181 32.4387 34.429 32.6598 34.2425C32.8729 34.0625 33.0849 33.8813 33.2962 33.6994C33.4919 33.5315 33.6869 33.3623 33.8849 33.1974C33.7206 33.0456 33.556 32.8948 33.3918 32.7436L32.5522 31.9711ZM24.7195 38.6786L25.9579 37.359H23.481L24.7195 38.6786ZM25.4612 35.1459V23.6636C25.4612 23.6636 26.4251 23.7042 27.4561 23.9692L27.9747 22.4422C27.3406 22.2854 26.6956 22.176 26.0453 22.115C25.8499 22.0967 25.6539 22.0823 25.4576 22.0718L25.4615 20.1829C25.4615 20.1829 26.6407 20.1911 27.089 20.2405C27.5366 20.2899 28.2761 20.5382 28.2761 20.5382L28.3111 18.7367H23.3534L23.9168 19.6728L23.9839 20.2267V35.1393C24.5091 35.1763 24.8386 35.1711 25.4612 35.1456M5 8.19834C5.66126 7.98239 6.32809 7.77757 6.99655 7.5855C7.14772 8.97511 7.29954 10.3647 7.45037 11.754C7.48113 12.1767 7.49618 12.3878 7.52628 12.8105L7.61462 11.7082C7.77462 10.2315 7.93429 8.75523 8.09528 7.27827C8.76832 7.09602 9.4466 6.9249 10.1255 6.76653V16.2729C9.51956 16.4152 9.21723 16.4901 8.61454 16.6475V10.7842L8.52554 12.2827C8.36096 13.7895 8.19605 15.2959 8.0318 16.8026C7.60219 16.9188 7.38722 16.9793 6.95892 17.103L6.46813 12.8727L6.37979 11.4111V17.2735C5.82682 17.4397 5.551 17.5254 5 17.7047V8.19834ZM10.7544 6.62191C11.8072 6.3857 12.866 6.17644 13.9295 5.99435V7.54689C13.2918 7.65585 12.9741 7.71442 12.339 7.84006V10.2139C12.9587 10.0912 13.2689 10.0339 13.8909 9.92626V11.4533C13.2692 11.5606 12.9584 11.6179 12.339 11.7406V14.3189C12.9738 14.1936 13.2918 14.135 13.9292 14.0254V15.501C12.8658 15.6816 11.8076 15.8943 10.7544 16.1289V6.62191ZM14.5639 5.88866C15.202 5.78592 15.5216 5.73881 16.1616 5.6521V13.6835C16.7346 13.6059 17.0212 13.5706 17.5954 13.5061V14.9814C16.5818 15.1019 15.5727 15.2396 14.5639 15.3957V5.88866ZM20.1194 13.3121C20.5605 13.2804 20.5863 12.9849 20.5863 11.9716C20.5863 10.9579 20.5605 10.7014 20.1194 10.7335C19.9643 10.7446 19.8864 10.7501 19.7307 10.7623V13.3409C19.8864 13.3291 19.9643 13.3232 20.1194 13.3121ZM20.0932 9.19531C20.5081 9.16553 20.5346 8.97282 20.5346 7.9464C20.5346 6.91966 20.5215 6.70142 20.0936 6.7325C19.9483 6.74297 19.876 6.74821 19.7307 6.75966V9.22312C19.876 9.21167 19.948 9.20611 20.0932 9.19531ZM18.1507 5.41489C18.8528 5.34094 19.5576 5.28008 20.2621 5.23198C21.8185 5.06511 22.0522 6.27966 22.0656 7.53086C22.0728 8.18395 22.1637 9.26958 21.4557 9.65044C22.328 9.93117 22.1304 11.3892 22.1307 12.057C22.132 13.3713 21.8244 14.6745 20.2752 14.7377C19.5668 14.7858 18.8574 14.8473 18.1507 14.9216V5.41489ZM27.4031 11.9467V5.1335C28.047 5.16065 28.369 5.17865 29.0119 5.22184V12.0733C29.0119 13.0863 29.0378 13.3177 29.4913 13.3517C29.9451 13.3857 29.9713 13.1586 29.9713 12.145V5.2948C30.5982 5.34716 30.9116 5.3766 31.5379 5.44401V12.2566C31.57 13.8134 31.2035 14.9477 29.4523 14.8378C27.728 14.7288 27.3926 13.4714 27.4031 11.9467ZM34.0292 10.56C34.4807 10.6268 34.4735 10.187 34.4931 8.96267C34.5003 8.50394 34.6515 7.42812 34.0292 7.26289C33.8796 7.24064 33.8054 7.23017 33.6558 7.20857V10.5057C33.8054 10.527 33.8796 10.5378 34.0292 10.56ZM32.1066 5.50748C32.8179 5.58895 33.5286 5.68417 34.236 5.79247C35.9308 6.06731 36.0777 7.68563 36.0748 9.11253C36.0725 9.9796 36.1625 11.2936 35.3167 11.8538C35.5523 13.101 35.7882 14.3477 36.0231 15.5949C35.4021 15.4827 35.0906 15.4307 34.4676 15.3345C34.2618 14.2253 34.056 13.1171 33.8492 12.0089L33.6562 11.9811V15.2141C33.0371 15.1264 32.7273 15.0865 32.1066 15.0138V5.50781V5.50748ZM36.5643 6.1887C37.2412 6.31664 37.5786 6.38568 38.2526 6.53226C38.4741 7.59892 38.6953 8.66591 38.9162 9.73322L39.1835 11.1549V6.74101C39.7796 6.88007 40.0764 6.95369 40.6699 7.10649V16.6132C40.1721 16.4832 39.6724 16.3604 39.1711 16.2447C38.8864 14.9572 38.6017 13.6704 38.3164 12.3825L38.0488 11.0679V15.9941C37.4562 15.8675 37.1588 15.8076 36.5643 15.6951V6.1887ZM41.2949 7.27172C42.3426 7.55573 43.3837 7.86133 44.4154 8.19834V9.75056C43.8992 9.58145 43.3806 9.42023 42.8595 9.26696V11.6408C43.4688 11.8214 43.7724 11.9156 44.3777 12.1119V13.6386C43.7724 13.4423 43.4688 13.3481 42.8595 13.1675V15.7458C43.4838 15.931 43.7953 16.0281 44.4154 16.2297V17.7047C43.3833 17.3694 42.3428 17.0607 41.2949 16.7787V7.27172ZM25.2652 9.86246C25.2652 6.75737 25.2652 6.57807 24.7515 6.57807C24.2516 6.57807 24.2516 6.7577 24.2516 9.86213C24.2516 12.9931 24.2516 13.1593 24.7518 13.1593C25.2655 13.1593 25.2655 12.9931 25.2655 9.86213M23.1993 14.1729C22.6607 13.5316 22.6352 12.3125 22.6352 9.82385C22.6352 7.43761 22.6607 6.21881 23.1613 5.55165C23.4689 5.16654 23.982 5 24.7515 5C25.5217 5 26.0479 5.16687 26.3302 5.5258C26.8564 6.1802 26.8688 7.399 26.8688 9.82385C26.8688 12.4797 26.8564 13.6344 26.3172 14.2243C26.0345 14.5453 25.5221 14.6605 24.7518 14.6605C23.9947 14.6605 23.482 14.5198 23.1993 14.1729Z" fill="#DE0316"/>
</svg>
